<?xml version="1.0" standalone="no"?>
<!DOCTYPE svg PUBLIC "-//W3C//DTD SVG 20010904//EN"
 "http://www.w3.org/TR/2001/REC-SVG-20010904/DTD/svg10.dtd">
<svg version="1.0" xmlns="http://www.w3.org/2000/svg"
 width="700.000000pt" height="700.000000pt" viewBox="0 0 700.000000 700.000000"
 preserveAspectRatio="xMidYMid meet">
<metadata>
Created by potrace 1.14, written by Peter Selinger 2001-2017
</metadata>
<g transform="translate(0.000000,700.000000) scale(0.100000,-0.100000)"
fill="#000000" stroke="none">
<path d="M3274 6990 c-1170 -82 -2190 -707 -2786 -1708 -249 -419 -406 -893
-464 -1397 -21 -181 -23 -557 -5 -725 49 -453 162 -846 355 -1230 196 -390
431 -700 761 -1007 476 -442 1087 -746 1731 -862 413 -74 855 -74 1268 0 564
102 1093 343 1559 712 131 103 431 403 534 534 323 407 543 853 667 1348 116
464 132 994 45 1479 -235 1305 -1203 2370 -2484 2731 -362 102 -817 150 -1181
125z m-1631 -1673 c81 -38 152 -97 197 -162 15 -22 357 -614 760 -1315 704
-1225 886 -1539 900 -1550 3 -3 20 -25 37 -50 65 -96 209 -222 313 -275 25
-13 70 -30 100 -39 l55 -16 -85 83 c-47 45 -151 146 -231 224 l-146 141 115
204 c89 158 1099 1914 1426 2478 104 180 208 263 373 297 315 64 617 -228 565
-546 -7 -38 -20 -89 -31 -114 -17 -39 -1070 -1867 -1419 -2462 -74 -126 -255
-439 -403 -695 -277 -483 -326 -553 -419 -612 -144 -91 -357 -90 -505 3 -99
62 -115 82 -267 344 -778 1336 -1973 3412 -1991 3460 -11 28 -22 87 -24 131
-10 150 32 259 142 370 110 111 197 145 361 140 93 -2 108 -6 177 -39z"/>
</g>
</svg>
